<mxfile host="app.diagrams.net" modified="2023-09-05T00:19:40.805Z" agent="Mozilla/5.0 (Windows NT 10.0; Win64; x64) AppleWebKit/537.36 (KHTML, like Gecko) Chrome/116.0.0.0 Safari/537.36" version="21.3.6" etag="9g6Z5cYTV6nb3IH2t_ry" type="github">
  <diagram name="PÃ¡gina-1" id="oU1izn7HJ73qYGum5QF6">
    <mxGraphModel>
      <root>
        <mxCell id="0" />
        <mxCell id="1" parent="0" />
      </root>
    </mxGraphModel>
  </diagram>
</mxfile>
